<?xml version="1.0" encoding="UTF-8"?>
<svg xmlns="http://www.w3.org/2000/svg" width="195" height="45" viewBox="0 0 195 45" fill="none">
  <path fill-rule="evenodd" clip-rule="evenodd" d="M61.2682 40.0294C54.8098 43.1391 46.5973 45.0006 37.6572 45.0006C16.8597 45.0006 0 34.9268 0 22.5003C0 14.758 6.54462 7.92907 16.5087 3.88078V32.1806C16.5087 32.1806 37.1427 23.5467 46.1701 22.9492V2.09298H21.7756C26.6013 0.749936 31.9827 0 37.6572 0C58.4547 0 75.3144 10.0737 75.3144 22.5003C75.3144 27.4545 72.6346 32.0348 68.0938 35.7518V24.0606C68.0938 24.0606 60.3052 23.473 55.365 24.0606C28.8891 27.2096 16.5087 35.8637 16.5087 35.8637V40.0294H61.2682Z" fill="#0095D7"></path>
  <g clip-path="url(#clip0_656_1840)">
    <mask id="mask0_656_1840" style="mask-type:luminance" maskUnits="userSpaceOnUse" x="175" y="28" width="18" height="9">
      <path d="M192.623 28.9087H175.191V36.1184H192.623V28.9087Z" fill="white"></path>
    </mask>
    <g mask="url(#mask0_656_1840)">
      <path d="M175.696 29.6617H177.054V35.3174H175.696V29.6617ZM178.805 29.6617H180.19L183.052 33.547V29.6617H184.373V35.3174H182.979L180.125 31.4401V35.3174H178.805V29.6617ZM189.115 35.4616C188.417 35.4616 187.824 35.336 187.334 35.085C186.852 34.8341 186.49 34.4762 186.252 34.0116C186.038 33.5897 185.931 33.0823 185.931 32.4895C185.931 31.9074 186.041 31.4001 186.261 30.9675C186.494 30.5082 186.852 30.153 187.334 29.902C187.818 29.6457 188.408 29.5175 189.105 29.5175C189.539 29.5175 189.937 29.5736 190.298 29.6857C190.659 29.7979 190.971 29.9581 191.233 30.1664C191.485 30.364 191.677 30.599 191.812 30.8713C191.952 31.1437 192.029 31.4428 192.041 31.7686H190.6C190.582 31.4001 190.442 31.109 190.179 30.8954C189.891 30.6764 189.518 30.5669 189.059 30.5669C188.699 30.5669 188.396 30.6337 188.151 30.7672C187.906 30.8954 187.72 31.0823 187.592 31.328C187.518 31.4775 187.463 31.6458 187.426 31.8326C187.396 32.0143 187.38 32.2332 187.38 32.4895C187.38 32.7512 187.396 32.9756 187.426 33.1624C187.463 33.3493 187.518 33.5149 187.592 33.6591C187.72 33.9048 187.906 34.0917 188.151 34.2199C188.402 34.348 188.705 34.4121 189.059 34.4121C189.536 34.4121 189.919 34.3 190.206 34.0757C190.469 33.8728 190.61 33.5924 190.628 33.2345H192.068C192.062 33.555 191.989 33.8487 191.848 34.1157C191.714 34.3827 191.524 34.6124 191.279 34.8047C191.016 35.0183 190.699 35.1812 190.325 35.2933C189.952 35.4055 189.549 35.4616 189.115 35.4616Z" fill="#0095D7"></path>
    </g>
    <mask id="mask1_656_1840" style="mask-type:luminance" maskUnits="userSpaceOnUse" x="149" y="8" width="21" height="17">
      <path d="M169.646 8.88159H149.837V24.9033H169.646V8.88159Z" fill="white"></path>
    </mask>
    <g mask="url(#mask1_656_1840)">
      <path d="M159.854 24.4771C157.9 24.4771 156.215 24.2202 154.797 23.7064C153.399 23.1788 152.317 22.4221 151.55 21.4362C151.014 20.853 150.612 20.1587 150.344 19.3534C150.076 18.548 149.941 17.6801 149.941 16.7498C149.941 15.2224 150.286 13.8894 150.976 12.7508C151.704 11.5706 152.824 10.6541 154.338 10.0015C155.851 9.34889 157.699 9.02258 159.883 9.02258C162.048 9.02258 163.877 9.34889 165.371 10.0015C166.884 10.6402 168.005 11.5497 168.733 12.73C169.442 13.8547 169.796 15.1947 169.796 16.7498C169.796 18.3189 169.442 19.6588 168.733 20.7697C167.986 21.9639 166.865 22.8803 165.371 23.519C163.877 24.1577 162.038 24.4771 159.854 24.4771ZM159.883 21.7069C162.201 21.7069 163.772 21.0266 164.595 19.6658C164.844 19.277 165.017 18.8535 165.113 18.3953C165.227 17.9232 165.285 17.3747 165.285 16.7498C165.285 16.1111 165.227 15.5626 165.113 15.1044C165.017 14.6323 164.844 14.2019 164.595 13.8131C164.193 13.1604 163.599 12.6606 162.814 12.3134C162.028 11.9663 161.042 11.7927 159.854 11.7927C158.686 11.7927 157.709 11.9732 156.924 12.3343C156.138 12.6814 155.544 13.1743 155.142 13.8131C154.893 14.2157 154.711 14.6531 154.596 15.1252C154.5 15.5835 154.452 16.125 154.452 16.7498C154.452 17.3747 154.5 17.9232 154.596 18.3953C154.711 18.8535 154.893 19.2839 155.142 19.6866C155.544 20.3393 156.138 20.8391 156.924 21.1862C157.709 21.5333 158.695 21.7069 159.883 21.7069Z" fill="#0095D7"></path>
    </g>
    <mask id="mask2_656_1840" style="mask-type:luminance" maskUnits="userSpaceOnUse" x="129" y="8" width="20" height="17">
      <path d="M148.253 8.88159H129.236V24.9033H148.253V8.88159Z" fill="white"></path>
    </mask>
    <g mask="url(#mask2_656_1840)">
      <path d="M139.265 24.4771C137.168 24.4771 135.385 24.1508 133.914 23.4982C132.461 22.8455 131.376 21.9152 130.659 20.7072C130.015 19.6103 129.693 18.2911 129.693 16.7498C129.693 15.2363 130.024 13.9172 130.686 12.7925C131.385 11.5983 132.461 10.675 133.914 10.0223C135.366 9.35583 137.141 9.02258 139.237 9.02258C140.543 9.02258 141.738 9.16838 142.823 9.45998C143.908 9.75157 144.846 10.1681 145.637 10.7097C146.391 11.2234 146.97 11.8344 147.374 12.5425C147.797 13.2507 148.027 14.0283 148.064 14.8753H143.733C143.678 13.9172 143.255 13.1604 142.465 12.605C141.6 12.0357 140.479 11.7511 139.099 11.7511C138.014 11.7511 137.104 11.9246 136.369 12.2718C135.633 12.605 135.072 13.091 134.686 13.7298C134.465 14.1185 134.3 14.5559 134.189 15.0419C134.098 15.514 134.052 16.0833 134.052 16.7498C134.052 17.4302 134.098 18.0134 134.189 18.4994C134.3 18.9854 134.465 19.4158 134.686 19.7908C135.072 20.4295 135.633 20.9155 136.369 21.2487C137.123 21.582 138.033 21.7486 139.099 21.7486C140.534 21.7486 141.683 21.457 142.547 20.8738C143.338 20.3461 143.761 19.6172 143.816 18.6869H148.147C148.128 19.52 147.908 20.2837 147.485 20.978C147.08 21.6723 146.51 22.2693 145.775 22.7692C144.984 23.3246 144.028 23.7481 142.906 24.0397C141.784 24.3313 140.57 24.4771 139.265 24.4771Z" fill="#0095D7"></path>
    </g>
    <path d="M107.565 9.39749H112.369L117.819 19.2492L123.351 9.39749H128.046V24.1022H124.269V14.1047L118.71 24.1022H116.902L111.343 14.1047V24.1022H107.565V9.39749Z" fill="#0095D7"></path>
    <path d="M101.541 9.39749H105.51V24.1022H101.541V9.39749Z" fill="#0095D7"></path>
    <mask id="mask3_656_1840" style="mask-type:luminance" maskUnits="userSpaceOnUse" x="84" y="8" width="16" height="17">
      <path d="M99.9198 8.88159H84.8652V24.9033H99.9198V8.88159Z" fill="white"></path>
    </mask>
    <g mask="url(#mask3_656_1840)">
      <path d="M85.4209 9.39749H90.393V21.4362H99.9202V24.1022H85.4209V9.39749Z" fill="#0095D7"></path>
    </g>
    <mask id="mask4_656_1840" style="mask-type:luminance" maskUnits="userSpaceOnUse" x="133" y="26" width="11" height="11">
      <path d="M143.498 26.5054H133.99V36.1184H143.498V26.5054Z" fill="white"></path>
    </mask>
    <g mask="url(#mask4_656_1840)">
      <path d="M137.284 28.5049H134.387V27.026H143.499V28.5049H139.587V35.3789H137.284V28.5049Z" fill="#0095D7"></path>
    </g>
    <mask id="mask5_656_1840" style="mask-type:luminance" maskUnits="userSpaceOnUse" x="148" y="26" width="12" height="11">
      <path d="M159.345 26.5054H148.252V36.1184H159.345V26.5054Z" fill="white"></path>
    </mask>
    <g mask="url(#mask5_656_1840)">
      <path d="M154.009 35.592C152.819 35.592 151.805 35.4066 150.97 35.0359C150.144 34.6652 149.528 34.1367 149.121 33.4504C148.755 32.8273 148.572 32.078 148.572 31.2025C148.572 30.3428 148.76 29.5934 149.136 28.9545C149.533 28.2762 150.144 27.7517 150.97 27.3809C151.795 27.0023 152.803 26.813 153.994 26.813C154.735 26.813 155.414 26.8959 156.031 27.0615C156.647 27.2271 157.18 27.4638 157.629 27.7714C158.057 28.0632 158.386 28.4102 158.616 28.8126C158.856 29.2149 158.987 29.6565 159.008 30.1377H156.548C156.516 29.5934 156.276 29.1636 155.827 28.848C155.336 28.5246 154.699 28.363 153.915 28.363C153.299 28.363 152.782 28.4615 152.364 28.6587C151.946 28.848 151.628 29.1241 151.408 29.4869C151.283 29.7078 151.189 29.9563 151.126 30.2323C151.074 30.5005 151.048 30.8239 151.048 31.2025C151.048 31.589 151.074 31.9203 151.126 32.1963C151.189 32.4724 151.283 32.7169 151.408 32.9299C151.628 33.2927 151.946 33.5687 152.364 33.758C152.792 33.9473 153.309 34.042 153.915 34.042C154.73 34.042 155.383 33.8764 155.874 33.5451C156.323 33.2453 156.563 32.8313 156.595 32.3028H159.055C159.044 32.7761 158.919 33.2099 158.679 33.6042C158.449 33.9986 158.125 34.3378 157.707 34.6218C157.258 34.9373 156.715 35.1778 156.078 35.3435C155.44 35.5091 154.751 35.592 154.009 35.592Z" fill="#0095D7"></path>
    </g>
    <mask id="mask6_656_1840" style="mask-type:luminance" maskUnits="userSpaceOnUse" x="123" y="26" width="11" height="11">
      <path d="M133.99 26.5054H123.689V36.1184H133.99V26.5054Z" fill="white"></path>
    </mask>
    <g mask="url(#mask6_656_1840)">
      <path d="M129.042 35.592C127.877 35.592 126.909 35.4539 126.14 35.1778C125.37 34.9018 124.821 34.5153 124.493 34.0184C124.278 33.6792 124.159 33.2572 124.137 32.7524H126.904C126.904 33.0679 126.966 33.3243 127.09 33.5215C127.407 33.9947 128.086 34.2313 129.127 34.2313C129.614 34.2313 130.027 34.1801 130.366 34.0775C130.717 33.9671 130.955 33.8133 131.079 33.6161C131.181 33.4504 131.232 33.2966 131.232 33.1547C131.232 33.0048 131.187 32.8589 131.096 32.7169C130.994 32.5513 130.819 32.4133 130.57 32.3028C130.332 32.1924 130.066 32.1056 129.772 32.0425C129.478 31.9715 129.065 31.8848 128.533 31.7822L127.769 31.6402C126.988 31.4983 126.332 31.3169 125.8 31.096C125.28 30.8673 124.906 30.5754 124.68 30.2205C124.499 29.9128 124.408 29.6013 124.408 29.2858C124.408 28.9467 124.516 28.6153 124.731 28.292C125.025 27.8266 125.546 27.4638 126.292 27.2035C127.039 26.9432 127.933 26.813 128.974 26.813C129.993 26.813 130.859 26.9432 131.572 27.2035C132.296 27.4559 132.816 27.8227 133.133 28.3038C133.348 28.6587 133.456 29.065 133.456 29.5225H130.859C130.859 29.2227 130.796 28.9743 130.672 28.7771C130.378 28.3433 129.778 28.1263 128.873 28.1263C128.442 28.1263 128.069 28.1815 127.752 28.292C127.447 28.3945 127.232 28.5365 127.107 28.7179C127.062 28.781 127.034 28.8441 127.022 28.9072C127.011 28.9624 127.005 29.0255 127.005 29.0965C127.005 29.2385 127.034 29.3647 127.09 29.4751C127.181 29.6171 127.339 29.7393 127.566 29.8419C127.803 29.9366 128.069 30.0154 128.363 30.0785C128.658 30.1416 129.065 30.2205 129.586 30.3151C129.914 30.3703 130.129 30.4098 130.231 30.4335C130.83 30.5439 131.345 30.6622 131.775 30.7884C132.217 30.9146 132.601 31.0723 132.93 31.2616C133.269 31.4431 133.529 31.6679 133.71 31.9361C133.891 32.2357 133.982 32.5749 133.982 32.9535C133.982 33.34 133.874 33.7028 133.659 34.042C133.342 34.5389 132.777 34.9215 131.962 35.1897C131.158 35.4579 130.185 35.592 129.042 35.592Z" fill="#0095D7"></path>
    </g>
    <mask id="mask7_656_1840" style="mask-type:luminance" maskUnits="userSpaceOnUse" x="159" y="26" width="11" height="11">
      <path d="M169.645 26.5054H159.345V36.1184H169.645V26.5054Z" fill="white"></path>
    </mask>
    <g mask="url(#mask7_656_1840)">
      <path d="M164.698 35.592C163.532 35.592 162.564 35.4539 161.795 35.1778C161.025 34.9018 160.477 34.5153 160.148 34.0184C159.933 33.6792 159.815 33.2572 159.792 32.7524H162.559C162.559 33.0679 162.621 33.3243 162.746 33.5215C163.062 33.9947 163.741 34.2313 164.783 34.2313C165.269 34.2313 165.682 34.1801 166.022 34.0775C166.372 33.9671 166.61 33.8133 166.735 33.6161C166.836 33.4504 166.887 33.2966 166.887 33.1547C166.887 33.0048 166.842 32.8589 166.752 32.7169C166.649 32.5513 166.474 32.4133 166.225 32.3028C165.988 32.1924 165.722 32.1056 165.428 32.0425C165.134 31.9715 164.72 31.8848 164.188 31.7822L163.424 31.6402C162.644 31.4983 161.987 31.3169 161.455 31.096C160.935 30.8673 160.561 30.5754 160.335 30.2205C160.154 29.9128 160.064 29.6013 160.064 29.2858C160.064 28.9467 160.171 28.6153 160.386 28.292C160.68 27.8266 161.201 27.4638 161.948 27.2035C162.695 26.9432 163.589 26.813 164.63 26.813C165.648 26.813 166.514 26.9432 167.227 27.2035C167.951 27.4559 168.472 27.8227 168.789 28.3038C169.003 28.6587 169.111 29.065 169.111 29.5225H166.514C166.514 29.2227 166.451 28.9743 166.327 28.7771C166.033 28.3433 165.433 28.1263 164.528 28.1263C164.098 28.1263 163.724 28.1815 163.408 28.292C163.102 28.3945 162.887 28.5365 162.762 28.7179C162.717 28.781 162.689 28.8441 162.678 28.9072C162.666 28.9624 162.661 29.0255 162.661 29.0965C162.661 29.2385 162.689 29.3647 162.746 29.4751C162.836 29.6171 162.994 29.7393 163.221 29.8419C163.459 29.9366 163.724 30.0154 164.019 30.0785C164.313 30.1416 164.72 30.2205 165.241 30.3151C165.569 30.3703 165.784 30.4098 165.886 30.4335C166.485 30.5439 167 30.6622 167.431 30.7884C167.872 30.9146 168.256 31.0723 168.585 31.2616C168.924 31.4431 169.185 31.6679 169.365 31.9361C169.547 32.2357 169.637 32.5749 169.637 32.9535C169.637 33.34 169.53 33.7028 169.315 34.042C168.998 34.5389 168.432 34.9215 167.618 35.1897C166.813 35.4579 165.84 35.592 164.698 35.592Z" fill="#0095D7"></path>
    </g>
    <mask id="mask8_656_1840" style="mask-type:luminance" maskUnits="userSpaceOnUse" x="119" y="26" width="4" height="11">
      <path d="M122.897 26.5054H119.728V36.1184H122.897V26.5054Z" fill="white"></path>
    </mask>
    <g mask="url(#mask8_656_1840)">
      <path d="M120.057 27.026H122.376V35.379H120.057V27.026Z" fill="#0095D7"></path>
    </g>
    <mask id="mask9_656_1840" style="mask-type:luminance" maskUnits="userSpaceOnUse" x="144" y="26" width="4" height="11">
      <path d="M147.459 26.5054H144.29V36.1184H147.459V26.5054Z" fill="white"></path>
    </mask>
    <g mask="url(#mask9_656_1840)">
      <path d="M144.619 27.026H146.938V35.379H144.619V27.026Z" fill="#0095D7"></path>
    </g>
    <mask id="mask10_656_1840" style="mask-type:luminance" maskUnits="userSpaceOnUse" x="106" y="26" width="13" height="11">
      <path d="M118.935 26.5054H106.258V36.1184H118.935V26.5054Z" fill="white"></path>
    </mask>
    <g mask="url(#mask10_656_1840)">
      <path d="M118.164 30.8357V31.4037C118.164 32.2397 117.964 32.9772 117.563 33.6161C117.139 34.2707 116.521 34.7637 115.707 35.0951C114.894 35.4263 113.891 35.592 112.699 35.592C111.44 35.592 110.365 35.4066 109.473 35.0359C108.593 34.6573 107.93 34.1249 107.484 33.4387C107.094 32.8234 106.899 32.078 106.899 31.2025C106.899 30.327 107.094 29.5816 107.484 28.9664C107.93 28.2722 108.593 27.7398 109.473 27.3692C110.365 26.9984 111.451 26.813 112.732 26.813C113.535 26.813 114.264 26.892 114.922 27.0497C115.579 27.2074 116.142 27.4362 116.61 27.7359C117.033 28.0041 117.368 28.3235 117.613 28.6942C117.869 29.065 118.019 29.276 118.064 29.7098H115.507C115.418 29.2365 115.173 29.065 114.771 28.8126C114.537 28.6548 114.242 28.5365 113.886 28.4576C113.529 28.3788 113.134 28.3393 112.699 28.3393C112.019 28.3393 111.445 28.4379 110.978 28.6351C110.51 28.8244 110.159 29.1044 109.925 29.4751C109.78 29.696 109.674 29.9405 109.607 30.2087C109.551 30.4768 109.523 30.8081 109.523 31.2025C109.523 31.5969 109.551 31.9281 109.607 32.1963C109.674 32.4566 109.78 32.7012 109.925 32.9299C110.17 33.3085 110.532 33.5925 111.011 33.7818C111.49 33.971 112.075 34.0657 112.766 34.0657C113.423 34.0657 113.975 33.9829 114.421 33.8172C114.877 33.6516 115.212 33.4032 115.423 33.0718C115.512 32.9299 115.574 32.7919 115.607 32.6578C115.652 32.5158 115.68 32.3541 115.691 32.1727H112.783V30.8357H118.164Z" fill="#0095D7"></path>
    </g>
    <mask id="mask11_656_1840" style="mask-type:luminance" maskUnits="userSpaceOnUse" x="93" y="26" width="14" height="11">
      <path d="M106.259 26.5054H93.5811V36.1184H106.259V26.5054Z" fill="white"></path>
    </mask>
    <g mask="url(#mask11_656_1840)">
      <path d="M99.9152 35.592C98.6975 35.592 97.647 35.446 96.7635 35.1542C95.8922 34.8545 95.2176 34.4245 94.7401 33.8646C94.4058 33.5333 94.1551 33.1389 93.988 32.6814C93.8208 32.224 93.7373 31.731 93.7373 31.2025C93.7373 30.3349 93.9522 29.5777 94.382 28.9309C94.8356 28.2604 95.5339 27.7398 96.477 27.3692C97.4202 26.9984 98.5722 26.813 99.9332 26.813C101.282 26.813 102.422 26.9984 103.354 27.3692C104.297 27.732 104.995 28.2486 105.449 28.919C105.89 29.558 106.111 30.3191 106.111 31.2025C106.111 32.0938 105.89 32.855 105.449 33.4859C104.983 34.1643 104.285 34.6848 103.354 35.0477C102.422 35.4105 101.276 35.592 99.9152 35.592ZM99.9332 34.0184C101.378 34.0184 102.357 33.6319 102.87 32.8589C103.025 32.638 103.133 32.3975 103.192 32.1372C103.264 31.869 103.3 31.5575 103.3 31.2025C103.3 30.8397 103.264 30.5281 103.192 30.2678C103.133 29.9996 103.025 29.7551 102.87 29.5342C102.619 29.1636 102.249 28.8796 101.76 28.6824C101.27 28.4852 100.655 28.3866 99.9152 28.3866C99.187 28.3866 98.5782 28.4892 98.0887 28.6942C97.5993 28.8915 97.2292 29.1714 96.9785 29.5342C96.8233 29.763 96.7098 30.0115 96.6382 30.2797C96.5786 30.5399 96.5486 30.8475 96.5486 31.2025C96.5486 31.5575 96.5786 31.869 96.6382 32.1372C96.7098 32.3975 96.8233 32.642 96.9785 32.8707C97.2292 33.2414 97.5993 33.5254 98.0887 33.7226C98.5782 33.9198 99.193 34.0184 99.9332 34.0184Z" fill="#0095D7"></path>
    </g>
    <path d="M84.9346 27.026H87.2536V33.8646H93.5807V35.379H84.9346V27.026Z" fill="#0095D7"></path>
    <path d="M195.001 33.7152H193.416V35.3173H195.001V33.7152Z" fill="#0095D7"></path>
  </g>
  <defs>
    <clipPath id="clip0_656_1840">
      <rect width="110.928" height="27.2368" fill="white" transform="translate(84.0723 8.88159)"></rect>
    </clipPath>
  </defs>
</svg>
